<svg width="21" height="20" viewBox="0 0 21 20" fill="none" xmlns="http://www.w3.org/2000/svg">
<path d="M19.4784 8.6607L2.62201 0.237944C2.37548 0.114091 2.09621 0.0710062 1.82381 0.114801C1.55142 0.158596 1.29973 0.287046 1.10444 0.481933C0.909154 0.67682 0.780188 0.928248 0.735836 1.20055C0.691484 1.47286 0.733997 1.75222 0.857345 1.999L4.6429 9.57732C4.68386 9.6591 4.70518 9.7493 4.70518 9.84076C4.70518 9.93222 4.68386 10.0224 4.6429 10.1042L0.857345 17.6753C0.758495 17.8755 0.712021 18.0975 0.722265 18.3206C0.73251 18.5437 0.799139 18.7605 0.915926 18.9508C1.03271 19.1411 1.19584 19.2987 1.39007 19.4089C1.5843 19.519 1.80329 19.5781 2.02657 19.5807C2.23364 19.5801 2.43764 19.5306 2.62201 19.4364L19.4784 11.0136C19.6963 10.9039 19.8794 10.7358 20.0074 10.528C20.1354 10.3203 20.2031 10.0811 20.2031 9.83715C20.2031 9.59317 20.1354 9.35398 20.0074 9.14626C19.8794 8.93853 19.6963 8.77044 19.4784 8.6607ZM19.1572 10.3676L2.29723 18.794C2.18577 18.8503 2.05937 18.8699 1.93609 18.8501C1.81281 18.8302 1.69898 18.7718 1.61088 18.6833C1.52278 18.5948 1.46494 18.4807 1.44561 18.3574C1.42629 18.234 1.44649 18.1077 1.50331 17.9965L4.82694 11.3528L10.4565 9.83715L4.84138 8.35396L1.50331 1.67782C1.44501 1.56688 1.4244 1.43998 1.44458 1.31629C1.46476 1.1926 1.52464 1.07883 1.61518 0.992167C1.66931 0.936835 1.73384 0.892733 1.80505 0.86239C1.87627 0.832046 1.95277 0.816057 2.03018 0.81534C2.12284 0.817473 2.21394 0.839632 2.29723 0.880297L19.15 9.30667C19.2478 9.35653 19.3299 9.43247 19.3873 9.52609C19.4446 9.6197 19.475 9.72736 19.475 9.83715C19.475 9.94694 19.4446 10.0546 19.3873 10.1482C19.3299 10.2418 19.2478 10.3178 19.15 10.3676H19.1572Z" fill="black"/>
</svg>
