<?xml version="1.0" encoding="UTF-8"?>
<svg data-bbox="0 0.01 160.482 140.903" viewBox="0 0 160.49 140.88" xmlns="http://www.w3.org/2000/svg" data-type="shape">
    <g fill="#84CC16">
        <path d="M0 82.07V28.52c0-4.18 1.11-5.31 5.36-5.32 8.26-.03 16.52-.07 24.77.03 2.23.03 3.25-.6 3.06-2.97-.16-1.99-.1-4.01.01-6 .17-3.01 1.42-4.17 4.44-4.2 4.25-.04 8.51-.09 12.76.02 1.99.05 2.8-.51 2.82-2.65.05-7.24.28-7.39 7.51-7.39 18.18 0 36.37.03 54.55-.03 2.14 0 3.84.5 5.37 2.06 6.15 6.24 12.36 12.41 18.56 18.6.88.88 1.24 1.9 1.3 3.14.44 9.67.41 19.33.09 29.01-.2 6 0 12.01-.1 18.02-.03 1.88.68 2.48 2.49 2.46 4.25-.06 8.51-.09 12.76.08 4.28.18 5.56 2.07 4.23 6.07-6.32 19.07-12.66 38.13-19.03 57.18-1.21 3.63-1.71 3.92-5.64 3.93-10.84.03-21.69.02-32.53.07-13.01.06-26.02.44-39.02.21-19.68-.35-39.36-.1-59.05-.28-4-.04-4.67-.62-4.68-4.65-.04-17.93-.02-35.87-.02-53.8H0Zm71.58 51.24c19.93 0 39.87-.03 59.8.04 2.16 0 3.26-.61 3.97-2.76 5.18-15.75 10.49-31.46 15.75-47.19.89-2.66.71-2.89-2.01-2.89-40.12 0-80.24 0-120.35-.04-1.92 0-2.78.66-3.37 2.46-5.18 15.75-10.44 31.48-15.69 47.21-1.01 3.03-.93 3.18 2.35 3.18h59.55Zm25.3-60.07c11.17 0 22.34-.04 33.51.04 2.13.01 2.94-.61 2.93-2.84-.08-13.5-.07-27.01-.01-40.51 0-1.94-.66-2.68-2.62-2.63-4.08.09-8.17.07-12.25 0-3.81-.06-5.1-1.35-5.16-5.16-.06-3.92-.14-7.84.02-11.75.1-2.42-.77-3.14-3.16-3.13-15.5.09-31.01.1-46.51 0-2.54-.02-3.25.74-3.24 3.26.1 19.84.1 39.68 0 59.52-.01 2.51.67 3.31 3.23 3.28 11.09-.13 22.17-.05 33.26-.06ZM7.26 113.12c.89-1.01 1.04-1.91 1.32-2.75 3.75-11.3 7.53-22.59 11.25-33.91.59-1.8 1.65-2.73 3.53-3.02 2.41-.37 4.83-.26 7.23-.19 1.98.06 2.6-.73 2.6-2.65-.05-12.5-.06-25 0-37.5.01-2.08-.71-2.73-2.76-2.7-6.58.1-13.17.03-19.75.04-3.41 0-3.42 0-3.42 3.47v79.21Zm33.16-67.97c0 8.5.05 17-.03 25.5-.02 1.95.62 2.71 2.58 2.62 2.66-.12 5.33-.07 8-.02 1.6.03 2.23-.65 2.23-2.24-.02-17.16-.02-34.33 0-51.49 0-1.6-.64-2.26-2.24-2.23-2.58.05-5.17.13-7.75-.03-2.22-.13-2.86.73-2.83 2.89.1 8.33.04 16.66.04 25Zm80.11-32.54v5.86c0 1.01.45 1.56 1.5 1.56h6c-2.63-2.61-4.86-4.81-7.5-7.42Z"/>
        <path d="M86.87 40.45c-5.17 0-10.34.02-15.51 0-3.01 0-4.56-1.15-4.67-3.34-.1-2.24 1.6-3.82 4.58-3.86 7.42-.09 14.84-.05 22.26-.05 3.09 0 6.17-.05 9.25.05 2.01.07 3.83.63 4.3 3.01.47 2.42-1.09 4.15-3.96 4.18-5.42.05-10.84.02-16.26.02Z"/>
        <path d="M80.16 53.93c-2.99 0-5.98.04-8.98-.01-2.86-.04-4.46-1.35-4.5-3.58-.04-2.25 1.55-3.67 4.37-3.7 6.15-.05 12.3-.05 18.45 0 2.82.02 4.41 1.45 4.37 3.69-.04 2.23-1.63 3.54-4.5 3.58-3.07.05-6.15.01-9.23.01Z"/>
    </g>
</svg>
