<?xml version="1.0" encoding="UTF-8"?>
<svg data-bbox="0.007 0 162.73 172.753" viewBox="0 0 162.74 172.77" xmlns="http://www.w3.org/2000/svg" data-type="shape">
    <g fill="#84CC16"> 
        <path d="M31.23 92.04c-1.67-2.03-2.76-3.67-5.65-3.01-2.93.68-5.84-1.32-7.25-4.09-1.36-2.69-1.01-5.89 1.18-8.24 2.85-3.05 5.79-6.02 8.83-8.88 1.41-1.33 1.89-2.72 1.88-4.63-.07-15.87-.04-31.74-.04-47.61C30.2 5.42 35.63 0 45.85 0h81.58c10.13 0 15.43 5.32 15.46 15.46v4.97c2.59.23 4.95.4 7.31.65 7.75.83 12.96 6.49 12.51 14.28-.53 9.35-1.51 18.67-2.35 28-.83 9.23-1.74 18.46-2.61 27.69-1.42 14.95-2.85 29.9-4.25 44.86-.69 7.38-1.45 14.77-1.97 22.16-.7 10.06-6.61 15.47-16.64 14.59-17.27-1.52-34.53-3.24-51.79-4.85-10.52-.98-21.05-1.98-31.58-2.87-6.47-.55-11.6-5.36-12.51-11.8-.13-.9-.86-2.01-1.63-2.47-4.82-2.9-7.1-7.2-7.16-12.7-.08-6.95-.02-13.91-.02-21.63-1.29 1.34-2.14 2.22-2.98 3.11-3.54 3.8-7.05 7.63-10.62 11.41-4.07 4.3-9.89 4.57-13.82.71-3.85-3.79-3.71-9.91.54-13.9 8.45-7.94 16.99-15.79 25.5-23.67.74-.69 1.57-1.29 2.42-1.98Zm4.44-31.99c.47-.06.74-.05.99-.13 6.55-2.21 11.09 1.19 10.86 7.99-.04 1.03.47 2.34 1.18 3.08 4.77 4.94 9.62 9.8 14.57 14.56.78.75 2.22 1.2 3.33 1.15 3.42-.15 6.21 1.16 7.66 3.94 1.62 3.1 1.18 6.05-1.14 8.47a570.134 570.134 0 0 1-15.73 15.76c-2.3 2.22-5.19 2.33-8.03 1.03-2.9-1.32-4.74-4.12-4.14-7.18.54-2.77-.86-4.04-2.83-5.55-2.06 2.19-4.1 4.32-6.06 6.52-.39.43-.63 1.16-.63 1.75-.03 9.28-.13 18.57.05 27.84.08 4.27 3.7 7.39 7.68 7.04v-5.53q0-5.01 5-6.04c.04-.43.09-.88.11-1.33.22-6.71 3.84-10.27 10.45-10.28H79.6c10.84 0 12.31 1.21 14.25 11.74 4.62.73 4.7.83 4.7 5.71v6.38c10.52 0 20.54.15 30.55-.06 5.15-.11 8.04-3.49 8.06-8.74.14-41.11.27-82.21.37-123.32.02-6.04-3.24-9.43-9.22-9.44-27.84-.05-55.69-.05-83.53 0-5.89.01-9.09 3.36-9.1 9.21-.02 9.84 0 19.68 0 29.52v15.92Zm9.14 92.61c.24 3.65 2.6 6.31 6.32 6.7 10.23 1.07 20.48 1.95 30.73 2.91 18.27 1.72 36.54 3.47 54.82 5.14 4.84.44 8.68-2.86 9.22-7.67.24-2.12.43-4.24.62-6.36 1.86-19.84 3.72-39.68 5.56-59.52 1.8-19.38 3.58-38.76 5.36-58.15.41-4.49-2.38-8.31-6.82-9.05-2.44-.41-4.93-.46-7.74-.7v110.97c0 9.97-5.77 15.72-15.7 15.73H44.8ZM33.15 84.94c5.33 5.34 10.83 10.86 16.28 16.32 3.41-3.41 7.08-7.06 10.63-10.61-5.46-5.47-10.93-10.96-16.37-16.41-3.55 3.61-7.23 7.34-10.54 10.7Zm15.74 61.89h43.96v-6.14H48.89v6.14ZM35.08 95.56c-9.6 8.92-18.99 17.57-28.29 26.31-1.8 1.7-1.67 4.55-.07 5.98 1.64 1.46 4.09 1.22 5.89-.68 3.88-4.11 7.72-8.25 11.57-12.38 4.77-5.14 9.53-10.29 14.37-15.52-1.23-1.32-2.29-2.44-3.47-3.7Zm52.8 39.3c.52-4.83-.66-6.23-5.1-6.23-7.88 0-15.75-.01-23.63 0-4.4 0-5.62 1.6-4.71 6.23h33.44Zm-35.44-23.42c.65-.31 1.16-.4 1.46-.71 5.11-5.08 10.24-10.16 15.24-15.35.44-.45.33-2.1-.14-2.57-.48-.47-1.98-.54-2.58-.13-1.35.92-2.43 2.25-3.61 3.42-3.73 3.72-7.5 7.41-11.14 11.21-.59.62-.95 1.77-.87 2.62.05.56 1.09 1.02 1.66 1.5Zm-10-45.01c-.59-.67-1.05-1.61-1.52-1.62-.9-.02-2.07.23-2.69.82-4.8 4.65-9.49 9.41-14.21 14.13-1.02 1.02-1.76 2.35-.29 3.24.73.45 2.55.13 3.23-.52 4.77-4.54 9.39-9.24 14.02-13.92.55-.56.9-1.31 1.46-2.15Z"/>
        <path d="M115.88 25.28c-1.18 19.19-9.79 35.34-26.2 47.3-2.15 1.57-3.82 1.56-5.96 0-16.55-12.06-25.61-28.13-26.34-48.71-.13-3.67.33-4.26 3.92-4.64 8.25-.87 15.81-3.6 22.98-7.72 1.13-.65 3.36-.58 4.49.12 6.91 4.3 14.43 6.6 22.44 7.5 4.23.47 4.82 1.12 4.67 6.15Zm-5.41-.44c-.78-.22-1.21-.38-1.65-.45-7.53-1.28-14.81-3.25-21.44-7.27-.63-.38-1.91 0-2.76.35-3.85 1.57-7.58 3.46-11.5 4.82-3.28 1.14-6.77 1.69-10.39 2.55 1.2 18.3 9.31 32.48 23.94 43.23 14.65-10.88 22.45-25.13 23.79-43.23Z"/>
        <path d="M104.58 104.75c-6.39 0-12.78-.03-19.16.02-1.97.01-3.71-.36-3.74-2.66-.03-2.29 1.71-2.8 3.66-2.8h38.88c1.96 0 3.75.56 3.78 2.73.03 2.19-1.68 2.76-3.69 2.74-6.57-.05-13.15-.02-19.72-.02Z"/>
        <path d="M106.84 89.13c-5.65 0-11.3-.02-16.94.01-2.04.01-3.96-.36-3.95-2.79.01-2.23 1.82-2.69 3.78-2.68 11.48.02 22.96.03 34.44 0 1.97 0 3.78.48 3.82 2.66.04 2.38-1.86 2.91-3.93 2.81-.46-.02-.93 0-1.39 0h-15.83Z"/>
        <path d="M112.77 114.77c3.89 0 7.79.05 11.68-.02 1.96-.04 3.48.68 3.55 2.64.08 1.99-1.46 2.87-3.37 2.88-7.97.02-15.94.02-23.92 0-1.88 0-3.4-.71-3.35-2.84.04-2.11 1.51-2.7 3.45-2.67 3.99.06 7.97.02 11.96.02Z"/>
        <path d="M118.66 130.44c2.13 0 4.31-.3 6.35.11 1.14.23 2.05 1.63 3.07 2.5-.96.95-1.88 2.65-2.9 2.72-4.6.29-9.23.21-13.85.07-1.63-.05-3.03-1.17-2.53-2.89.29-1.01 1.65-2.25 2.67-2.41 2.35-.36 4.79-.11 7.19-.11Z"/>
        <path d="M81.11 43.79c4.83-4.9 8.95-9.04 13.02-13.22 1.45-1.49 3.07-2.48 4.77-.74 1.63 1.67.51 3.18-.86 4.53-4.61 4.57-9.17 9.19-13.78 13.76-2.2 2.18-3.11 2.16-5.34 0-1.53-1.49-3.24-2.86-4.43-4.59-.61-.88-.72-2.72-.19-3.61.89-1.52 2.61-1.35 3.81-.12 1.09 1.12 1.9 2.51 2.99 3.99Z"/>
    </g>
</svg>
