<?xml version="1.0" encoding="UTF-8"?>
<svg data-bbox="0.015 0.01 125.873 129.352" viewBox="0 0 125.89 129.35" xmlns="http://www.w3.org/2000/svg" data-type="shape">
    <g fill="#84CC16">
        <path d="M22 72.99c-7.04-12.42-4.03-25.77 4.34-33.83 5.1-4.91 11.23-7.48 18.26-7.66 6.94-.18 13.13 2.11 18.59 6.71 4.03-4.06 7.96-7.96 11.79-11.96.47-.49.57-1.47.57-2.23.04-6.29.02-12.59.03-18.88 0-3.76 1.37-5.13 5.11-5.13h29.84c3.62 0 4.87 1.25 4.88 4.84 0 8.05.01 16.11 0 24.16 0 3.35-1.46 4.79-4.82 4.79-9.95 0-19.9-.03-29.84.03-2.24.01-3.97-.63-4.94-2.74-3.29 3.31-6.52 6.57-9.84 9.91 3.66 4.47 5.96 9.63 6.43 15.7h13.7V45.72c0-3.72 1.29-5.04 4.94-5.05h30.05c3.39 0 4.79 1.4 4.79 4.81.01 8.05.01 16.11 0 24.16 0 3.41-1.4 4.8-4.79 4.81H90.84c-3.37 0-4.72-1.4-4.73-4.84v-8.84H72.46c-.53 5.85-2.69 11.14-6.47 15.65 3.37 3.3 6.64 6.51 9.92 9.73.82-1.84 2.53-2.44 4.76-2.42 9.95.07 19.9.02 29.84.03 3.66 0 4.91 1.23 4.91 4.83 0 8.05.01 16.11 0 24.16 0 3.44-1.33 4.75-4.81 4.75H80.56c-3.45 0-4.97-1.48-4.97-4.91-.02-6.43.02-12.86-.04-19.29 0-.79-.29-1.78-.81-2.32-3.75-3.9-7.6-7.7-11.55-11.67-4.63 3.81-9.86 6.07-15.92 6.63v9.61h2.12c4.06 0 8.12-.03 12.18.02 2.56.03 4.23 1.66 4.24 4.19.04 8.53.04 17.05 0 25.58-.01 2.47-1.62 3.99-4.14 4-10.49.03-20.98.03-31.47 0-2.68 0-4.17-1.5-4.18-4.13-.03-8.46-.03-16.92 0-25.38 0-2.65 1.63-4.24 4.34-4.26 4.25-.04 8.51 0 12.91 0v-9.15c-4.02-1.26-7.97-2.5-12.36-3.88-.09.09-.63.58-1.15 1.09-5.98 5.98-11.97 11.95-17.94 17.95-1.77 1.78-3.79 2.88-6.35 2.36-2.58-.53-4.4-2-5.15-4.6-.77-2.66-.06-4.94 1.86-6.87C8.2 86.43 14.23 80.4 20.27 74.39c.52-.52 1.17-.92 1.75-1.37Zm21.51-37.66c-7.1.24-14.11 4.04-18.54 11.81-4.43 7.76-4.22 15.74.19 23.54 1.43 2.53 1.46 2.71-.67 4.84-4.06 4.07-8.13 8.13-12.19 12.2-2.53 2.54-5.09 5.05-7.59 7.62-1.22 1.25-1.27 2.67-.1 4 .99 1.13 2.7 1.08 4-.03.41-.35.78-.75 1.17-1.13l18.65-18.65q2.23-2.23 4.96-.63c8.58 5.02 19.19 4.13 26.89-2.24 7.51-6.22 10.32-16.57 7.02-25.89-3.24-9.14-12.14-15.41-23.78-15.44Zm46.41 35.16h32.06V44.65H89.92v25.84ZM29.93 99.57v25.85h31.88V99.57H29.93Zm81.61-11.99H79.69v26.03h31.85V87.58ZM79.65 3.85v25.87h31.88V3.85H79.65Z"/>
        <path d="M45.4 38.67c10.92.03 19.94 9.13 19.92 20.09-.01 10.95-9.04 19.98-20.01 20.02-11.06.04-20.11-9.01-20.1-20.1.02-11.08 9.06-20.04 20.18-20.01Zm16 20.09c.02-9.04-7.15-16.24-16.17-16.23-8.89.01-16.09 7.14-16.21 16.06-.12 8.9 7.17 16.28 16.14 16.33 9.01.05 16.21-7.12 16.24-16.16Z"/>
        <path d="M111.22 48.06c1.69 0 3.41-.2 5.06.08.84.14 1.54 1.13 2.3 1.74-.7.68-1.37 1.91-2.11 1.95-3.5.21-7.02.14-10.54.06-1.18-.03-2.1-.65-2.02-2.03.08-1.37 1.02-1.79 2.23-1.8h5.07Z"/>
        <path d="M101.08 59.46c-1.75 0-3.5-.02-5.25 0-1.32.02-2.34-.42-2.38-1.85-.04-1.42.93-1.96 2.27-1.96h10.51c1.32 0 2.31.51 2.28 1.95-.03 1.45-1.07 1.87-2.37 1.86-1.68-.02-3.37 0-5.05 0Z"/>
        <path d="M112.23 67.07c-1.41 0-2.87.2-4.23-.08-.78-.16-1.78-.97-2-1.7-.4-1.29.66-2.02 1.85-2.06 2.89-.09 5.8-.17 8.67.06.73.06 1.37 1.29 2.05 1.98-.77.6-1.46 1.52-2.33 1.71-1.28.29-2.68.08-4.02.07Z"/>
        <path d="M98.39 67.04c-1.08 0-2.23.24-3.2-.08-.71-.23-1.55-1.13-1.66-1.84-.08-.52.87-1.69 1.44-1.75 2.26-.21 4.56-.21 6.82 0 .56.05 1.51 1.21 1.43 1.74-.1.7-.93 1.61-1.63 1.84-.97.32-2.12.08-3.2.08Z"/>
        <path d="M97.2 51.98c-1.6-.13-3.73.33-3.71-2.03.03-2.39 2.17-1.82 3.7-1.89.67-.03 1.45-.21 1.99.06.74.37 1.86 1.16 1.8 1.66-.08.75-.93 1.58-1.67 2.04-.55.34-1.44.13-2.12.16Z"/>
        <path d="M115.25 59.43c-.47 0-1.09.19-1.38-.04-.67-.52-1.65-1.25-1.64-1.87.02-.63.99-1.44 1.73-1.77.67-.31 1.69-.32 2.36-.03.85.37 2.01 1.08 2.14 1.81.24 1.32-.86 1.96-2.21 1.93h-1.01v-.03Z"/>
        <path d="M51.11 106.88c-1.68 0-3.36.03-5.05 0-1.3-.03-2.45-.64-2.17-2 .16-.76 1.33-1.8 2.1-1.84 3.42-.2 6.86-.2 10.28 0 .77.05 1.95 1.11 2.09 1.86.25 1.34-.91 1.95-2.21 1.97-1.68.03-3.36 0-5.05 0Z"/>
        <path d="M40.84 114.4h-5.25c-1.22 0-2.17-.46-2.22-1.8-.06-1.44.9-2.02 2.21-2.03 3.57-.02 7.14-.03 10.7 0 1.21.01 2.1.56 2.11 1.92.01 1.38-.87 1.89-2.1 1.91-1.82.03-3.63 0-5.45 0Z"/>
        <path d="M52.11 121.92c-1.49 0-3.01.18-4.45-.08-.7-.13-1.25-1.09-1.87-1.67.63-.64 1.22-1.8 1.89-1.85 2.96-.2 5.95-.19 8.92 0 .66.04 1.25 1.09 1.88 1.67-.63.64-1.18 1.69-1.91 1.85-1.43.3-2.96.09-4.45.09Z"/>
        <path d="M38.3 121.93c-1.01 0-2.11.24-3.02-.07-.77-.27-1.31-1.19-1.95-1.81.6-.6 1.15-1.64 1.81-1.71 2.07-.23 4.2-.23 6.27 0 .67.07 1.24 1.1 1.86 1.69-.65.64-1.19 1.56-1.96 1.84-.9.32-2 .07-3.02.07Z"/>
        <path d="M36.87 106.88c-1.25-.09-3.19.49-3.51-1.88-.2-1.48.97-2.05 3.83-2.05.6 0 1.33-.2 1.78.07.76.45 1.35 1.21 2.02 1.83-.68.68-1.28 1.48-2.07 1.99-.43.27-1.18.05-2.06.05Z"/>
        <path d="M55.23 114.36c-.47 0-1.07.18-1.38-.04-.69-.49-1.71-1.2-1.7-1.81 0-.65.93-1.51 1.66-1.86.65-.32 1.58-.12 2.38-.09 1.3.04 2.28.59 2.25 2.01-.03 1.31-.98 1.8-2.2 1.83h-1.01v-.04Z"/>
        <path d="M100.83 94.91c-1.75 0-3.5.02-5.26 0-1.24-.02-2.14-.61-2.1-1.93.04-1.31.96-1.85 2.2-1.85 3.37-.01 6.74-.01 10.11 0 1.29 0 2.27.44 2.26 1.96-.01 1.42-.97 1.82-2.16 1.84-1.68.03-3.37 0-5.05 0Z"/>
        <path d="M90.62 102.45c-1.82 0-3.64-.01-5.45 0-1.29.02-2.18-.59-2.18-1.85 0-1.25.85-1.86 2.16-1.85 3.63.03 7.27.02 10.9 0 1.33 0 2.22.75 2 1.92-.13.69-1.23 1.58-2 1.69-1.78.25-3.62.08-5.44.08Z"/>
        <path d="M101.82 106.26c1.35 0 2.71-.03 4.06 0 1.21.03 2.14.46 2.17 1.87.03 1.38-.84 1.96-2.06 1.98-2.84.05-5.69.14-8.52-.07-.72-.05-1.78-1.08-1.94-1.81-.27-1.26.78-1.91 2.02-1.95 1.42-.05 2.84-.01 4.26-.01Z"/>
        <path d="M87.92 110.13c-.94 0-1.99.26-2.8-.07-.84-.35-1.46-1.26-2.17-1.93.68-.62 1.3-1.67 2.05-1.77 1.92-.26 3.9-.12 5.85-.08 1.23.03 2.31.71 2.02 1.93-.18.77-1.29 1.53-2.15 1.85-.82.31-1.86.07-2.81.07Z"/>
        <path d="M86.71 94.91c-.54 0-1.08.01-1.62 0-1.26-.04-2.32-.71-2.04-1.92.18-.75 1.33-1.53 2.19-1.8.98-.31 2.14-.08 3.22-.07 1.24.02 2.14.52 2.17 1.87.03 1.36-.85 1.89-2.1 1.92-.61.02-1.22 0-1.82 0Z"/>
        <path d="M104.99 98.8c.54 0 1.26-.22 1.57.05.62.53 1.39 1.32 1.41 2.01.04 1.55-1.28 1.67-2.48 1.58-1.36-.1-3.24.64-3.58-1.5-.1-.63.7-1.55 1.32-2.08.35-.3 1.16-.05 1.76-.05Z"/>
        <path d="M90.54 14.95H96c1.29 0 2.29.75 2.05 1.91-.16.76-1.35 1.8-2.12 1.84-3.57.2-7.15.2-10.72 0-.79-.04-2.02-1.07-2.16-1.82-.25-1.33.88-1.95 2.22-1.95h5.26Z"/>
        <path d="M100.8 11.11h-5.26c-1.28 0-2.27-.66-2-1.91.15-.71 1.25-1.68 1.96-1.71 3.49-.18 7-.08 10.51-.08 1.29 0 2.06.58 2.04 1.93-.02 1.28-.82 1.76-1.99 1.77-1.75.01-3.5 0-5.26 0Z"/>
        <path d="M101.7 26.38c-1.41 0-2.87.21-4.22-.08-.77-.17-1.36-1.17-2.04-1.8.69-.68 1.33-1.88 2.07-1.94 2.81-.23 5.65-.13 8.47-.08 1.21.02 2.07.6 2.06 1.96 0 1.39-.92 1.88-2.11 1.93-1.41.07-2.83.02-4.24.02v-.01Z"/>
        <path d="M87.95 22.47c1.01 0 2.12-.25 3.01.07.79.29 1.35 1.22 2.01 1.86-.65.65-1.24 1.78-1.97 1.87-1.99.26-4.06.26-6.05 0-.74-.1-1.34-1.2-2.01-1.85.72-.66 1.35-1.56 2.2-1.9.81-.33 1.86-.07 2.81-.07Z"/>
        <path d="M86.72 11.09c-.67 0-1.48.23-1.99-.06-.71-.4-1.68-1.22-1.65-1.82.03-.62 1.03-1.56 1.75-1.71 1.29-.28 2.72-.28 4.01 0 .7.15 1.67 1.11 1.69 1.73.02.61-.91 1.44-1.62 1.81-.59.3-1.45.06-2.19.06Z"/>
        <path d="M105.03 14.39c1.15.7 2.21 1.1 2.86 1.85.27.31-.26 1.98-.56 2.01-1.59.2-3.23.18-4.82-.03-.29-.04-.79-1.75-.53-2.01.76-.75 1.86-1.16 3.04-1.82Z"/>
        <path d="M43.43 61.2c-.44-2.09.5-3.16 2.81-3.51 1.92-.29 3.03-2.33 2.63-4.15-.42-1.91-2.15-3.19-4.01-2.97-1.91.23-3.3 1.82-3.28 3.75 0 .2.03.4.08.6.3 1.39.27 2.73-1.47 2.96-1.85.24-2.17-1.3-2.39-2.64-.6-3.61 1.9-7.29 5.58-8.32 3.53-.98 7.56 1.09 8.9 4.59 1.35 3.53-.14 7.63-3.55 9.33-1.07.53-1.65 1-1.73 2.32-.04.64-1.11 1.68-1.73 1.69-.61 0-1.36-.98-1.79-1.69-.27-.45-.05-1.19-.05-1.98Z"/>
        <path d="M44.75 70.76c-.55-.79-1.5-1.54-1.57-2.37-.11-1.25.86-2.34 2.18-1.98.8.22 1.82 1.3 1.89 2.08.06.71-1.01 1.53-1.58 2.3-.31 0-.61-.01-.92-.02Z"/>
    </g>
</svg>
