<?xml version="1.0" encoding="UTF-8"?>
<svg data-bbox="0 -0.008 199.756 199.902" viewBox="0 0 199.75 199.9" xmlns="http://www.w3.org/2000/svg" data-type="shape">
    <g fill="#84CC16">
        <path d="M0 22.49h154.38c.44-7.11 3.03-13.05 8.52-17.47 4.34-3.5 9.34-5.16 14.92-5.02 10.99.3 19.98 8.51 21.63 19.74 1.69 11.55-5.41 21.08-19.15 25.38v3.05c0 18.9.04 37.81-.05 56.71-.01 2.25.71 3.68 2.32 5.22 15.21 14.42 20.68 32.05 14.98 52.14-5.74 20.23-19.79 32.67-40.38 36.72-28.9 5.69-56.81-15.3-60.19-44.64-.1-.85-.3-1.68-.49-2.77H0V22.49Zm6.32 122.36h90.31c.19-2.09.37-4.05.59-6.38h-6.94v-38.42h19.21v13.66c19.22-18.48 40.46-21.85 64.14-10.56V45.3c-3.52-1.47-6.75-2.82-10.6-4.42-5.83 5.93-12.03 12.16-18.1 18.52-.54.57-.52 1.96-.35 2.89.77 4.25-.55 7.64-4.02 10.13-3.15 2.26-7.37 2.25-10.62.15-3.45-2.23-4.94-6.04-4.18-10.36.15-.86.27-2.2-.21-2.63-2.67-2.37-4.33-6.8-9.32-4.87-.71.27-1.71-.28-2.53-.16-1.24.18-2.79.24-3.6 1a284.12 284.12 0 0 0-12.75 12.76c-.81.87-1.2 2.61-1.03 3.84.63 4.39-1.24 8.56-5.11 10.56a9.619 9.619 0 0 1-11.28-1.8 9.633 9.633 0 0 1-1.66-11.3c2.05-3.84 6.16-5.64 10.61-4.96 1.15.18 2.79-.16 3.59-.91 4.45-4.2 8.78-8.54 12.99-12.97.71-.75 1.1-2.26.94-3.31-.68-4.41.68-8.14 4.1-10.4a9.64 9.64 0 0 1 10.63.03c3.42 2.28 4.78 5.96 4.02 10.42-.15.85-.15 2.13.35 2.6 2.62 2.48 4.46 6.67 9.36 4.74.46-.18 1.14-.14 1.58.07 2.45 1.17 4.01-.07 5.5-1.8.98-1.13 2.1-2.15 3.18-3.2 4.68-4.55 9.37-9.09 13.9-13.49-.92-1.65-1.75-2.61-2.01-3.72-.81-3.46-3.1-3.75-6.17-3.74-46.94.09-93.89.06-140.83.06H6.29v115.85Zm104.34 28.72c10.32 13.78 23.63 20.64 40.45 19.59 14.38-.9 25.69-7.66 34.23-19.67-3.97-2.27-7.55-4.32-11.13-6.37-6.92 8.69-15.53 13.34-26.34 13.3-10.79-.04-19.32-4.87-26.05-13.3l-11.16 6.45Zm7.88-12.08c-8.2-19.94 3.5-42.64 26.05-45.62v-12.65c-17.47 2.13-30.21 10.7-37.56 26.41-5.89 12.59-5.47 25.39.5 38.26 3.89-2.26 7.39-4.29 11.01-6.4Zm32.91-58.23v12.83c10.71 1.58 19.03 6.72 24.46 16.03 5.5 9.42 5.59 19.29 1.63 29.38 3.75 2.16 7.25 4.18 10.73 6.19 6.57-9.7 6.57-27.64-.24-40.23-7.81-14.43-20.06-22.34-36.58-24.2Zm-3.28 19.2c-14.22-.06-25.87 11.52-25.89 25.73-.02 14.08 11.43 25.67 25.49 25.81 14.22.14 25.95-11.37 26.05-25.57.1-14.21-11.45-25.91-25.65-25.97Zm44.98-99.85c.03-8.79-7.07-16.03-15.86-16.15-8.91-.13-16.28 7.11-16.32 16.02-.04 8.78 7.08 16.03 15.86 16.16 8.9.13 16.28-7.12 16.32-16.03Zm-96.5 83.8v25.55c4.95-.12 8.35-15.55 5.76-25.55h-5.76Zm22.84-60.64c-.02-.46-.04-.93-.05-1.39-1.18-.82-2.28-2.14-3.55-2.33-1.95-.3-3.48 1.19-3.09 3.09.25 1.19 1.87 2.86 2.94 2.92 1.21.06 2.5-1.46 3.75-2.29Zm19.3 19.49c0-.46 0-.91.01-1.37-1.14-.87-2.18-2.25-3.45-2.5-1.93-.38-3.53 1.04-3.22 2.96.19 1.2 1.74 2.95 2.81 3.05 1.21.11 2.56-1.36 3.84-2.14Zm-48.37 9.76c.02-.46.03-.91.05-1.37-1.12-.9-2.12-2.31-3.37-2.6-1.93-.44-3.55.95-3.3 2.87.16 1.21 1.66 3 2.73 3.13 1.2.14 2.59-1.29 3.9-2.03Z"/>
        <path d="M83.37 138.42H64.4V87.24h18.97v51.18Zm-6.46-6.46V93.6h-6.03v38.36h6.03Z"/>
        <path d="M12.79 138.32v-31.8h19.07v31.8H12.79Zm6.51-25.39v18.97h6.26v-18.97H19.3Z"/>
        <path d="M38.59 138.33v-25.38h18.96v25.38H38.59Zm6.49-18.96v12.54h6.26v-12.54h-6.26Z"/>
        <path d="M25.7 41.66V35.6h44.86v6.06H25.7Z"/>
        <path d="M25.69 54.54v-6.05h44.86v6.05H25.69Z"/>
        <path d="M70.56 61.43v6.07H25.82v-6.07h44.74Z"/>
        <path d="M70.58 74.34v6.04H25.72v-6.04h44.86Z"/>
        <path d="M12.89 35.57h6.08v6.07h-6.08v-6.07Z"/>
        <path d="M12.84 48.46h6.06v6.11h-6.06v-6.11Z"/>
        <path d="M12.83 61.34h6.08v6.14h-6.08v-6.14Z"/>
        <path d="M18.87 80.5h-5.96v-6.18h5.96v6.18Z"/>
        <path d="M148.03 167.55c-10.73 0-19.39-8.75-19.31-19.5.08-10.59 8.72-19.15 19.34-19.14 10.74 0 19.39 8.74 19.31 19.5-.08 10.6-8.72 19.15-19.34 19.15Zm12.88-19.22c.05-7.08-5.69-12.91-12.77-12.96-7.07-.06-12.91 5.69-12.97 12.77-.06 7.07 5.7 12.91 12.77 12.97 7.07.06 12.91-5.69 12.96-12.77Z"/>
    </g>
</svg>
